<svg width="28" height="28" viewBox="0 0 28 28" fill="none" xmlns="http://www.w3.org/2000/svg">
<path d="M22.1648 10.5L17.5 0H15.1648L19.8297 10.5H22.1648ZM12.8352 0H10.5L5.83516 10.5H8.17031L12.8352 0ZM2.33516 25.6648C2.33516 26.95 3.37969 28 4.67031 28H23.3352C24.6203 28 25.6703 26.9555 25.6703 25.6648L26.8352 15.1648H1.16484L2.33516 25.6648ZM19.8352 17.5H22.1703L21 25.6648H18.6648L19.8352 17.5ZM12.8352 17.5H15.1703V25.6648H12.8352V17.5ZM8.16484 17.5L9.32969 25.6648H7L5.83516 17.5H8.16484ZM26.8352 11.6648H1.16484C0.519531 11.6648 0 12.1898 0 12.8352V14H28V12.8352C28 12.1898 27.4805 11.6648 26.8352 11.6648Z" fill="white"/>
</svg>
