<svg width="82" height="22" viewBox="0 0 82 22" fill="none" xmlns="http://www.w3.org/2000/svg">
<path d="M72.628 0C67.4483 0 63.4937 3.89894 63.4937 9.07863C63.4937 14.314 67.4483 18.1573 72.628 18.1573C77.752 18.1573 81.7623 14.2026 81.7623 9.02294C81.7061 3.78757 77.752 0 72.628 0ZM72.628 14.0356C69.7875 14.0356 67.7824 11.9191 67.7824 9.02294C67.7824 6.18252 69.8432 4.066 72.628 4.066C75.4684 4.066 77.4735 6.18252 77.4735 9.02294C77.4735 11.9191 75.5241 14.0356 72.628 14.0356Z" fill="black"/>
<path d="M60.4863 13.7571H59.3726V2.22788C59.3726 1.05851 58.593 0.111359 57.2561 0.111359H47.3979C46.228 0.111359 45.4484 0.890943 45.4484 2.22788V5.01262C45.4484 7.01778 45.3927 8.57695 45.0586 10.248C44.7245 11.8634 44.279 12.9214 43.666 13.7566H43.1648C41.7722 13.7566 41.104 14.6476 41.104 15.8732V19.8278C41.104 21.1647 42.0506 21.9443 43.2205 21.9443C44.4456 21.9443 45.3371 21.1647 45.3371 19.8278V17.934H58.3141V19.8278C58.3141 21.1647 59.2607 21.9443 60.4306 21.9443C61.6557 21.9443 62.5472 21.1647 62.5472 19.8278V15.8732C62.6028 14.6481 61.9341 13.7571 60.4863 13.7571ZM55.0839 13.7571H48.0661C48.5116 12.8105 48.8457 11.9747 49.1241 10.7497C49.4025 9.41273 49.5139 8.07629 49.5696 6.34956L49.6253 4.28872H55.0834V13.7571H55.0839Z" fill="black"/>
<path d="M31.5799 0C26.4002 0 22.4456 3.89894 22.4456 9.07863C22.4456 14.314 26.4002 18.1573 31.5799 18.1573C36.7039 18.1573 40.7142 14.2026 40.7142 9.02294C40.7142 3.78757 36.7596 0 31.5799 0ZM31.5799 14.0356C28.7394 14.0356 26.7343 11.9191 26.7343 9.02294C26.7343 6.18252 28.7951 4.066 31.5799 4.066C34.4203 4.066 36.4255 6.18252 36.4255 9.02294C36.4255 11.9191 34.5322 14.0356 31.5799 14.0356Z" fill="black"/>
<path d="M19.3266 13.7571H18.2129V2.22788C18.2129 1.05851 17.4334 0.111359 16.0964 0.111359H6.23821C5.06883 0.111359 4.28873 0.890943 4.28873 2.22788V5.01262C4.28873 7.01778 4.28873 8.57695 3.89894 10.248C3.56483 11.8634 3.11936 12.9214 2.50632 13.7566H2.06084C0.668217 13.7566 0 14.6476 0 15.8732V19.8278C0 21.1647 0.946636 21.9443 2.11652 21.9443C3.34158 21.9443 4.23305 21.1647 4.23305 19.8278V17.934H17.2106V19.8278C17.2106 21.1647 18.1573 21.9443 19.3271 21.9443C20.5522 21.9443 21.4437 21.1647 21.4437 19.8278V15.8732C21.4432 14.6481 20.7749 13.7571 19.3266 13.7571ZM13.9242 13.7571H6.90642C7.3519 12.8105 7.686 11.9747 7.96443 10.7497C8.24285 9.41273 8.35422 8.07629 8.4099 6.34956L8.46559 4.28872H13.9237L13.9242 13.7571Z" fill="black"/>
</svg>
