<svg width="103" height="22" viewBox="0 0 103 22" fill="none" xmlns="http://www.w3.org/2000/svg">
<path d="M102.371 14.9822L96.5234 2.2279C95.8552 0.835278 94.9637 0.222748 93.6273 0.222748H93.4045C92.0119 0.222748 91.1209 0.835278 90.4527 2.2279L84.6048 14.9822C84.048 16.263 84.4378 17.3772 85.6071 17.8226C86.6651 18.2124 87.668 17.9897 88.2805 16.7646L89.6175 13.9799C90.7868 14.3697 92.2908 14.5924 93.6278 14.5924C95.0761 14.5924 96.4125 14.3697 97.471 13.9799L98.7518 16.7646C99.3086 17.9897 100.423 18.2129 101.425 17.8226C102.483 17.3772 102.928 16.2078 102.371 14.9822ZM93.5154 10.7492C92.6244 10.7492 91.6773 10.6378 90.9534 10.4151L93.4597 4.84559L95.966 10.4151C95.2421 10.6378 94.4068 10.7492 93.5154 10.7492Z" fill="black"/>
<path d="M81.3185 13.8128H80.2048V2.11652C80.2048 0.779585 79.2025 0 78.0326 0C76.8632 0 75.9161 0.779585 75.9161 2.11652V13.8128H68.4528V2.11652C68.4528 0.779585 67.5062 0 66.2806 0C65.055 0 64.1084 0.779585 64.1084 2.11652V15.8732C64.1084 17.0425 64.888 17.9897 66.2249 17.9897H79.202V19.8835C79.202 21.2204 80.1486 22 81.3185 22C82.5436 22 83.435 21.2204 83.435 19.8835V15.9289C83.4345 14.5367 82.5992 13.8128 81.3185 13.8128Z" fill="black"/>
<path d="M59.7084 13.8128H58.5947V2.11652C58.5947 0.779585 57.5924 0 56.4225 0C55.2531 0 54.306 0.779585 54.306 2.11652V13.8128H46.8427V2.11652C46.8427 0.779585 45.8961 0 44.6705 0C43.4449 0 42.4983 0.779585 42.4983 2.11652V15.8732C42.4983 17.0425 43.2779 17.9897 44.6148 17.9897H57.5919V19.8835C57.5919 21.2204 58.5385 22 59.7084 22C60.9335 22 61.8249 21.2204 61.8249 19.8835V15.9289C61.8249 14.5367 60.9896 13.8128 59.7084 13.8128Z" fill="black"/>
<path d="M35.7032 0.167054H35.5361C34.2549 0.167054 33.4196 0.779584 32.5286 2.06084L25.5109 12.0304V2.11653C25.5109 0.779585 24.6199 0 23.45 0C22.225 0 21.3335 0.779585 21.3335 2.11653V15.5391C21.3335 16.9874 22.2801 17.934 23.7284 17.934H23.9512C25.2881 17.934 26.1791 17.2658 27.0143 16.0402L34.0321 6.07064V16.0402C34.0321 17.3772 34.9231 18.1567 36.093 18.1567C37.2629 18.1567 38.1538 17.3772 38.1538 16.0402V2.562C38.1538 1.1142 37.2629 0.167054 35.7032 0.167054Z" fill="black"/>
<path d="M14.7617 0.167053H2.73127C1.33865 0.167053 0.614746 1.11369 0.614746 2.28358V16.0402C0.614746 17.3772 1.61708 18.1567 2.78696 18.1567C3.95634 18.1567 4.90347 17.3772 4.90347 16.0402V4.34442H12.5895V16.0407C12.5895 17.3777 13.5361 18.1573 14.7617 18.1573C15.9311 18.1573 16.9339 17.3777 16.9339 15.985V2.22789C16.9339 1.1142 16.1543 0.167053 14.7617 0.167053Z" fill="black"/>
</svg>
